<svg width="156" height="27" viewBox="0 0 156 27" fill="none" xmlns="http://www.w3.org/2000/svg">
<path d="M7.5 24.5L1 17.5L7.5 15L12 20L17.5 15L12 7.5V12.5L1 10L5.5 4.5" stroke="white" stroke-width="2" stroke-linecap="round" stroke-linejoin="round"/>
<path d="M30.246 17.282L30.136 14.598L38.87 5.6H41.378L34.624 12.728L33.392 14.092L30.246 17.282ZM28.31 21V5.6H30.51V21H28.31ZM39.222 21L32.908 13.652L34.382 12.024L41.796 21H39.222ZM43.5997 21V9.34H45.6237V12.508L45.4257 11.716C45.7483 10.9093 46.291 10.2933 47.0537 9.868C47.8163 9.44267 48.755 9.23 49.8697 9.23V11.276C49.7817 11.2613 49.6937 11.254 49.6057 11.254C49.5323 11.254 49.459 11.254 49.3857 11.254C48.2563 11.254 47.3617 11.5913 46.7017 12.266C46.0417 12.9407 45.7117 13.916 45.7117 15.192V21H43.5997ZM57.5573 21.132C56.3106 21.132 55.2106 20.8753 54.2573 20.362C53.3186 19.8487 52.5853 19.1447 52.0573 18.25C51.5439 17.3553 51.2873 16.3287 51.2873 15.17C51.2873 14.0113 51.5366 12.9847 52.0353 12.09C52.5486 11.1953 53.2453 10.4987 54.1253 10C55.0199 9.48667 56.0246 9.23 57.1393 9.23C58.2686 9.23 59.2659 9.47933 60.1313 9.978C60.9966 10.4767 61.6713 11.1807 62.1553 12.09C62.6539 12.9847 62.9033 14.0333 62.9033 15.236C62.9033 15.324 62.8959 15.4267 62.8813 15.544C62.8813 15.6613 62.8739 15.7713 62.8593 15.874H52.9373V14.356H61.7593L60.9013 14.884C60.9159 14.136 60.7619 13.4687 60.4393 12.882C60.1166 12.2953 59.6693 11.8407 59.0973 11.518C58.5399 11.1807 57.8873 11.012 57.1393 11.012C56.4059 11.012 55.7533 11.1807 55.1813 11.518C54.6093 11.8407 54.1619 12.3027 53.8393 12.904C53.5166 13.4907 53.3553 14.1653 53.3553 14.928V15.28C53.3553 16.0573 53.5313 16.754 53.8833 17.37C54.2499 17.9713 54.7559 18.4407 55.4013 18.778C56.0466 19.1153 56.7873 19.284 57.6233 19.284C58.3126 19.284 58.9359 19.1667 59.4933 18.932C60.0653 18.6973 60.5639 18.3453 60.9893 17.876L62.1553 19.24C61.6273 19.856 60.9673 20.3253 60.1753 20.648C59.3979 20.9707 58.5253 21.132 57.5573 21.132ZM80.422 9.23C81.3607 9.23 82.1893 9.41333 82.908 9.78C83.6267 10.1467 84.184 10.704 84.58 11.452C84.9907 12.2 85.196 13.146 85.196 14.29V21H83.084V14.532C83.084 13.4027 82.82 12.552 82.292 11.98C81.764 11.408 81.0233 11.122 80.07 11.122C79.366 11.122 78.75 11.2687 78.222 11.562C77.694 11.8553 77.2833 12.288 76.99 12.86C76.7113 13.432 76.572 14.1433 76.572 14.994V21H74.46V14.532C74.46 13.4027 74.196 12.552 73.668 11.98C73.1547 11.408 72.414 11.122 71.446 11.122C70.7567 11.122 70.148 11.2687 69.62 11.562C69.092 11.8553 68.6813 12.288 68.388 12.86C68.0947 13.432 67.948 14.1433 67.948 14.994V21H65.836V9.34H67.86V12.442L67.53 11.65C67.8967 10.8873 68.4613 10.2933 69.224 9.868C69.9867 9.44267 70.874 9.23 71.886 9.23C73.0007 9.23 73.9613 9.50867 74.768 10.066C75.5747 10.6087 76.1027 11.4373 76.352 12.552L75.494 12.2C75.846 11.3053 76.462 10.5867 77.342 10.044C78.222 9.50133 79.2487 9.23 80.422 9.23ZM94.2741 21.132C93.0274 21.132 91.9274 20.8753 90.9741 20.362C90.0354 19.8487 89.3021 19.1447 88.7741 18.25C88.2607 17.3553 88.0041 16.3287 88.0041 15.17C88.0041 14.0113 88.2534 12.9847 88.7521 12.09C89.2654 11.1953 89.9621 10.4987 90.8421 10C91.7367 9.48667 92.7414 9.23 93.8561 9.23C94.9854 9.23 95.9827 9.47933 96.8481 9.978C97.7134 10.4767 98.3881 11.1807 98.8721 12.09C99.3707 12.9847 99.6201 14.0333 99.6201 15.236C99.6201 15.324 99.6127 15.4267 99.5981 15.544C99.5981 15.6613 99.5907 15.7713 99.5761 15.874H89.6541V14.356H98.4761L97.6181 14.884C97.6327 14.136 97.4787 13.4687 97.1561 12.882C96.8334 12.2953 96.3861 11.8407 95.8141 11.518C95.2567 11.1807 94.6041 11.012 93.8561 11.012C93.1227 11.012 92.4701 11.1807 91.8981 11.518C91.3261 11.8407 90.8787 12.3027 90.5561 12.904C90.2334 13.4907 90.0721 14.1653 90.0721 14.928V15.28C90.0721 16.0573 90.2481 16.754 90.6001 17.37C90.9667 17.9713 91.4727 18.4407 92.1181 18.778C92.7634 19.1153 93.5041 19.284 94.3401 19.284C95.0294 19.284 95.6527 19.1667 96.2101 18.932C96.7821 18.6973 97.2807 18.3453 97.7061 17.876L98.8721 19.24C98.3441 19.856 97.6841 20.3253 96.8921 20.648C96.1147 20.9707 95.2421 21.132 94.2741 21.132ZM108.779 9.23C109.732 9.23 110.568 9.41333 111.287 9.78C112.02 10.1467 112.592 10.704 113.003 11.452C113.413 12.2 113.619 13.146 113.619 14.29V21H111.507V14.532C111.507 13.4027 111.228 12.552 110.671 11.98C110.128 11.408 109.358 11.122 108.361 11.122C107.613 11.122 106.96 11.2687 106.403 11.562C105.845 11.8553 105.413 12.288 105.105 12.86C104.811 13.432 104.665 14.1433 104.665 14.994V21H102.553V9.34H104.577V12.486L104.247 11.65C104.628 10.8873 105.215 10.2933 106.007 9.868C106.799 9.44267 107.723 9.23 108.779 9.23ZM117.835 21V5.6H120.035V19.086H128.373V21H117.835ZM130.59 21V9.34H132.702V21H130.59ZM131.646 7.096C131.235 7.096 130.891 6.964 130.612 6.7C130.348 6.436 130.216 6.11333 130.216 5.732C130.216 5.336 130.348 5.006 130.612 4.742C130.891 4.478 131.235 4.346 131.646 4.346C132.057 4.346 132.394 4.478 132.658 4.742C132.937 4.99133 133.076 5.30667 133.076 5.688C133.076 6.084 132.944 6.42133 132.68 6.7C132.416 6.964 132.071 7.096 131.646 7.096ZM137.042 21V8.306C137.042 7.162 137.372 6.25267 138.032 5.578C138.707 4.88867 139.66 4.544 140.892 4.544C141.347 4.544 141.78 4.60267 142.19 4.72C142.616 4.82267 142.975 4.99133 143.268 5.226L142.63 6.832C142.41 6.656 142.161 6.524 141.882 6.436C141.604 6.33333 141.31 6.282 141.002 6.282C140.386 6.282 139.917 6.458 139.594 6.81C139.272 7.14733 139.11 7.65333 139.11 8.328V9.89L139.154 10.858V21H137.042ZM135.062 11.078V9.34H142.498V11.078H135.062ZM149.51 21.132C148.264 21.132 147.164 20.8753 146.21 20.362C145.272 19.8487 144.538 19.1447 144.01 18.25C143.497 17.3553 143.24 16.3287 143.24 15.17C143.24 14.0113 143.49 12.9847 143.988 12.09C144.502 11.1953 145.198 10.4987 146.078 10C146.973 9.48667 147.978 9.23 149.092 9.23C150.222 9.23 151.219 9.47933 152.084 9.978C152.95 10.4767 153.624 11.1807 154.108 12.09C154.607 12.9847 154.856 14.0333 154.856 15.236C154.856 15.324 154.849 15.4267 154.834 15.544C154.834 15.6613 154.827 15.7713 154.812 15.874H144.89V14.356H153.712L152.854 14.884C152.869 14.136 152.715 13.4687 152.392 12.882C152.07 12.2953 151.622 11.8407 151.05 11.518C150.493 11.1807 149.84 11.012 149.092 11.012C148.359 11.012 147.706 11.1807 147.134 11.518C146.562 11.8407 146.115 12.3027 145.792 12.904C145.47 13.4907 145.308 14.1653 145.308 14.928V15.28C145.308 16.0573 145.484 16.754 145.836 17.37C146.203 17.9713 146.709 18.4407 147.354 18.778C148 19.1153 148.74 19.284 149.576 19.284C150.266 19.284 150.889 19.1667 151.446 18.932C152.018 18.6973 152.517 18.3453 152.942 17.876L154.108 19.24C153.58 19.856 152.92 20.3253 152.128 20.648C151.351 20.9707 150.478 21.132 149.51 21.132Z" fill="white"/>
</svg>
